# Simple low-poly rubber duck
# ~50 triangles

# Body (squashed sphere)
v 0 0.3 0
v 0.5 0 0
v 0 0 0.5
v -0.5 0 0
v 0 0 -0.5
v 0 -0.2 0

# Head (smaller sphere, offset)
v 0.6 0.5 0
v 0.85 0.4 0
v 0.6 0.4 0.2
v 0.6 0.4 -0.2
v 0.6 0.25 0

# Beak
v 1.0 0.4 0
v 0.95 0.45 0.08
v 0.95 0.35 0.08
v 0.95 0.35 -0.08
v 0.95 0.45 -0.08

# Tail
v -0.6 0.1 0
v -0.55 0.2 0.1
v -0.55 0.2 -0.1

# Body faces
f 1 2 3
f 1 3 4
f 1 4 5
f 1 5 2
f 6 3 2
f 6 4 3
f 6 5 4
f 6 2 5

# Head faces
f 7 8 9
f 7 9 11
f 7 10 8
f 7 11 10
f 8 10 9
f 10 11 9

# Beak faces
f 12 13 14
f 12 14 15
f 12 15 16
f 12 16 13
f 13 16 15
f 13 15 14

# Tail faces
f 17 18 19
f 4 17 18
f 4 18 1
f 4 19 17
f 4 1 19

# Connect head to body
f 2 7 1
f 7 9 3
f 2 3 9
f 2 9 7
